<mxfile host="Electron" agent="Mozilla/5.0 (Windows NT 10.0; Win64; x64) AppleWebKit/537.36 (KHTML, like Gecko) draw.io/26.2.2 Chrome/134.0.6998.178 Electron/35.1.2 Safari/537.36" version="26.2.2">
  <diagram id="R2lEEEUBdFMjLlhIrx00" name="Page-1">
    <mxGraphModel dx="1785" dy="1061" grid="0" gridSize="10" guides="1" tooltips="1" connect="1" arrows="0" fold="1" page="0" pageScale="1" pageWidth="850" pageHeight="1100" background="#000000" math="0" shadow="0" extFonts="Permanent Marker^https://fonts.googleapis.com/css?family=Permanent+Marker">
      <root>
        <mxCell id="0" />
        <mxCell id="1" parent="0" />
        <mxCell id="lz5ieuGBcfySBptjdUhH-66" value="" style="group" vertex="1" connectable="0" parent="1">
          <mxGeometry x="120" y="360" width="1070" height="970" as="geometry" />
        </mxCell>
        <mxCell id="lz5ieuGBcfySBptjdUhH-64" value="" style="rounded=1;whiteSpace=wrap;html=1;fillColor=none;fillStyle=auto;dashed=1;dashPattern=8 8;glass=0;strokeWidth=2;labelBackgroundColor=none;" vertex="1" parent="lz5ieuGBcfySBptjdUhH-66">
          <mxGeometry x="820" width="250" height="970" as="geometry" />
        </mxCell>
        <mxCell id="lz5ieuGBcfySBptjdUhH-5" value="Powerlink Box" style="swimlane;childLayout=stackLayout;horizontal=1;startSize=50;horizontalStack=0;rounded=1;fontSize=14;fontStyle=0;strokeWidth=2;resizeParent=0;resizeLast=1;shadow=0;dashed=0;align=center;arcSize=4;whiteSpace=wrap;html=1;labelBackgroundColor=none;" vertex="1" parent="lz5ieuGBcfySBptjdUhH-66">
          <mxGeometry y="370" width="180" height="200" as="geometry" />
        </mxCell>
        <mxCell id="lz5ieuGBcfySBptjdUhH-6" value="&lt;div&gt;&lt;span style=&quot;background-color: transparent; color: light-dark(rgb(0, 0, 0), rgb(255, 255, 255));&quot;&gt;MQTT Protocol&lt;/span&gt;&lt;/div&gt;&lt;div&gt;&lt;span style=&quot;background-color: transparent; color: light-dark(rgb(0, 0, 0), rgb(255, 255, 255));&quot;&gt;version&lt;/span&gt;&lt;/div&gt;&lt;div&gt;session&lt;/div&gt;&lt;div&gt;deviceId&lt;/div&gt;&lt;div&gt;&lt;u&gt;slot7_state&lt;/u&gt;&lt;/div&gt;&lt;div&gt;&lt;u&gt;system_state&lt;/u&gt;&lt;/div&gt;&lt;div&gt;&lt;u&gt;flow_monitor&lt;/u&gt;&lt;/div&gt;&lt;div&gt;&lt;u&gt;gps_config&lt;/u&gt;&lt;/div&gt;&lt;div&gt;&lt;br&gt;&lt;/div&gt;&lt;div&gt;&lt;br&gt;&lt;/div&gt;&lt;div&gt;&lt;br&gt;&lt;/div&gt;&lt;div&gt;&lt;br&gt;&lt;/div&gt;&lt;div&gt;&lt;br&gt;&lt;/div&gt;" style="align=left;strokeColor=none;fillColor=none;spacingLeft=4;spacingRight=4;fontSize=12;verticalAlign=top;resizable=0;rotatable=0;part=1;html=1;whiteSpace=wrap;labelBackgroundColor=none;rounded=1;" vertex="1" parent="lz5ieuGBcfySBptjdUhH-5">
          <mxGeometry y="50" width="180" height="150" as="geometry" />
        </mxCell>
        <mxCell id="lz5ieuGBcfySBptjdUhH-11" style="edgeStyle=orthogonalEdgeStyle;rounded=1;orthogonalLoop=1;jettySize=auto;html=1;exitX=0.5;exitY=1;exitDx=0;exitDy=0;labelBackgroundColor=none;fontColor=default;" edge="1" parent="lz5ieuGBcfySBptjdUhH-5" source="lz5ieuGBcfySBptjdUhH-6" target="lz5ieuGBcfySBptjdUhH-6">
          <mxGeometry relative="1" as="geometry" />
        </mxCell>
        <mxCell id="lz5ieuGBcfySBptjdUhH-12" value="InfluxDB database" style="swimlane;childLayout=stackLayout;horizontal=1;startSize=50;horizontalStack=0;rounded=1;fontSize=14;fontStyle=0;strokeWidth=2;resizeParent=0;resizeLast=1;shadow=0;dashed=0;align=center;arcSize=4;whiteSpace=wrap;html=1;labelBackgroundColor=none;" vertex="1" parent="lz5ieuGBcfySBptjdUhH-66">
          <mxGeometry x="430" y="35" width="180" height="200" as="geometry" />
        </mxCell>
        <mxCell id="lz5ieuGBcfySBptjdUhH-13" value="&lt;div&gt;username&lt;/div&gt;&lt;div&gt;password&lt;/div&gt;&lt;div&gt;token&lt;/div&gt;organization&lt;div&gt;bucket&lt;/div&gt;&lt;div&gt;&lt;u&gt;measurement&lt;/u&gt;&lt;/div&gt;" style="align=left;strokeColor=none;fillColor=none;spacingLeft=4;spacingRight=4;fontSize=12;verticalAlign=top;resizable=0;rotatable=0;part=1;html=1;whiteSpace=wrap;labelBackgroundColor=none;rounded=1;" vertex="1" parent="lz5ieuGBcfySBptjdUhH-12">
          <mxGeometry y="50" width="180" height="150" as="geometry" />
        </mxCell>
        <mxCell id="lz5ieuGBcfySBptjdUhH-16" value="EMQX MQTT Broker" style="swimlane;childLayout=stackLayout;horizontal=1;startSize=50;horizontalStack=0;rounded=1;fontSize=14;fontStyle=0;strokeWidth=2;resizeParent=0;resizeLast=1;shadow=0;dashed=0;align=center;arcSize=4;whiteSpace=wrap;html=1;labelBackgroundColor=none;" vertex="1" parent="lz5ieuGBcfySBptjdUhH-66">
          <mxGeometry x="430" y="370" width="180" height="200" as="geometry" />
        </mxCell>
        <mxCell id="lz5ieuGBcfySBptjdUhH-17" value="username&lt;div&gt;password&lt;/div&gt;&lt;div&gt;service (broker)&lt;/div&gt;&lt;div&gt;&lt;span style=&quot;background-color: transparent; color: light-dark(rgb(0, 0, 0), rgb(255, 255, 255));&quot;&gt;port&lt;/span&gt;&lt;/div&gt;" style="align=left;strokeColor=none;fillColor=none;spacingLeft=4;spacingRight=4;fontSize=12;verticalAlign=top;resizable=0;rotatable=0;part=1;html=1;whiteSpace=wrap;labelBackgroundColor=none;rounded=1;" vertex="1" parent="lz5ieuGBcfySBptjdUhH-16">
          <mxGeometry y="50" width="180" height="150" as="geometry" />
        </mxCell>
        <mxCell id="lz5ieuGBcfySBptjdUhH-18" value="Grafana Dashboard" style="swimlane;childLayout=stackLayout;horizontal=1;startSize=50;horizontalStack=0;rounded=1;fontSize=14;fontStyle=0;strokeWidth=2;resizeParent=0;resizeLast=1;shadow=0;dashed=0;align=center;arcSize=4;whiteSpace=wrap;html=1;labelBackgroundColor=none;" vertex="1" parent="lz5ieuGBcfySBptjdUhH-66">
          <mxGeometry y="35" width="180" height="200" as="geometry" />
        </mxCell>
        <mxCell id="lz5ieuGBcfySBptjdUhH-19" value="&lt;div&gt;username&lt;/div&gt;&lt;div&gt;password&lt;/div&gt;datasource" style="align=left;strokeColor=none;fillColor=none;spacingLeft=4;spacingRight=4;fontSize=12;verticalAlign=top;resizable=0;rotatable=0;part=1;html=1;whiteSpace=wrap;labelBackgroundColor=none;rounded=1;" vertex="1" parent="lz5ieuGBcfySBptjdUhH-18">
          <mxGeometry y="50" width="180" height="150" as="geometry" />
        </mxCell>
        <mxCell id="lz5ieuGBcfySBptjdUhH-53" style="rounded=1;orthogonalLoop=1;jettySize=auto;html=1;exitX=0.5;exitY=0;exitDx=0;exitDy=0;entryX=0.5;entryY=1;entryDx=0;entryDy=0;fontSize=12;endArrow=ERmandOne;startArrow=ERmandOne;labelBackgroundColor=none;fontColor=default;" edge="1" parent="lz5ieuGBcfySBptjdUhH-66" source="lz5ieuGBcfySBptjdUhH-20" target="lz5ieuGBcfySBptjdUhH-36">
          <mxGeometry relative="1" as="geometry" />
        </mxCell>
        <mxCell id="lz5ieuGBcfySBptjdUhH-20" value="MQTT Client" style="swimlane;childLayout=stackLayout;horizontal=1;startSize=50;horizontalStack=0;rounded=1;fontSize=14;fontStyle=0;strokeWidth=2;resizeParent=0;resizeLast=1;shadow=0;dashed=0;align=center;arcSize=4;whiteSpace=wrap;html=1;labelBackgroundColor=none;" vertex="1" parent="lz5ieuGBcfySBptjdUhH-66">
          <mxGeometry x="850" y="370" width="180" height="200" as="geometry" />
        </mxCell>
        <mxCell id="lz5ieuGBcfySBptjdUhH-21" value="&lt;div&gt;MQTT Protocol&lt;/div&gt;Client ID&lt;div&gt;username&lt;/div&gt;&lt;div&gt;password&lt;/div&gt;&lt;div&gt;broker (service)&lt;/div&gt;&lt;div&gt;port&lt;/div&gt;&lt;div&gt;&lt;u&gt;on_connect()&lt;/u&gt;&lt;/div&gt;&lt;div&gt;&lt;u&gt;on_disconnect()&lt;/u&gt;&lt;/div&gt;&lt;div&gt;&lt;u&gt;on_message()&lt;/u&gt;&lt;/div&gt;&lt;div&gt;&lt;br&gt;&lt;/div&gt;&lt;div&gt;&lt;br&gt;&lt;/div&gt;" style="align=left;strokeColor=none;fillColor=none;spacingLeft=4;spacingRight=4;fontSize=12;verticalAlign=top;resizable=0;rotatable=0;part=1;html=1;whiteSpace=wrap;labelBackgroundColor=none;rounded=1;" vertex="1" parent="lz5ieuGBcfySBptjdUhH-20">
          <mxGeometry y="50" width="180" height="150" as="geometry" />
        </mxCell>
        <mxCell id="lz5ieuGBcfySBptjdUhH-51" style="rounded=1;orthogonalLoop=1;jettySize=auto;html=1;exitX=0.5;exitY=0;exitDx=0;exitDy=0;entryX=0.5;entryY=1;entryDx=0;entryDy=0;fontSize=12;endArrow=ERmandOne;startArrow=ERmandOne;labelBackgroundColor=none;fontColor=default;" edge="1" parent="lz5ieuGBcfySBptjdUhH-66" source="lz5ieuGBcfySBptjdUhH-23" target="lz5ieuGBcfySBptjdUhH-39">
          <mxGeometry relative="1" as="geometry" />
        </mxCell>
        <mxCell id="lz5ieuGBcfySBptjdUhH-23" value="Python Main" style="swimlane;childLayout=stackLayout;horizontal=1;startSize=50;horizontalStack=0;rounded=1;fontSize=14;fontStyle=0;strokeWidth=2;resizeParent=0;resizeLast=1;shadow=0;dashed=0;align=center;arcSize=4;whiteSpace=wrap;html=1;labelBackgroundColor=none;" vertex="1" parent="lz5ieuGBcfySBptjdUhH-66">
          <mxGeometry x="850" y="710" width="180" height="210" as="geometry" />
        </mxCell>
        <mxCell id="lz5ieuGBcfySBptjdUhH-24" value="&lt;div&gt;container name&lt;/div&gt;&lt;div&gt;box_list&lt;/div&gt;&lt;div&gt;connected_boxes&lt;/div&gt;&lt;div&gt;&lt;span style=&quot;background-color: transparent; color: light-dark(rgb(0, 0, 0), rgb(255, 255, 255));&quot;&gt;threads&lt;/span&gt;&lt;/div&gt;&lt;div&gt;&lt;span style=&quot;white-space: pre;&quot;&gt;&#x9;&lt;/span&gt;main&lt;br&gt;&lt;/div&gt;&lt;div&gt;&lt;span style=&quot;white-space: pre;&quot;&gt;&#x9;&lt;/span&gt;client.loop_start()&lt;br&gt;&lt;/div&gt;&lt;div&gt;&lt;span style=&quot;white-space: pre;&quot;&gt;&#x9;&lt;/span&gt;connect_reply_thread&lt;br&gt;&lt;/div&gt;&lt;div&gt;&lt;span style=&quot;white-space: pre;&quot;&gt;&#x9;&lt;/span&gt;command_loop_thread&lt;br&gt;&lt;/div&gt;&lt;div&gt;&lt;br&gt;&lt;/div&gt;&lt;div&gt;&lt;br&gt;&lt;/div&gt;" style="align=left;strokeColor=none;fillColor=none;spacingLeft=4;spacingRight=4;fontSize=12;verticalAlign=top;resizable=0;rotatable=0;part=1;html=1;whiteSpace=wrap;labelBackgroundColor=none;rounded=1;" vertex="1" parent="lz5ieuGBcfySBptjdUhH-23">
          <mxGeometry y="50" width="180" height="160" as="geometry" />
        </mxCell>
        <mxCell id="lz5ieuGBcfySBptjdUhH-25" value="InfluxDB Client" style="swimlane;childLayout=stackLayout;horizontal=1;startSize=50;horizontalStack=0;rounded=1;fontSize=14;fontStyle=0;strokeWidth=2;resizeParent=0;resizeLast=1;shadow=0;dashed=0;align=center;arcSize=4;whiteSpace=wrap;html=1;labelBackgroundColor=none;" vertex="1" parent="lz5ieuGBcfySBptjdUhH-66">
          <mxGeometry x="850" y="35" width="180" height="200" as="geometry" />
        </mxCell>
        <mxCell id="lz5ieuGBcfySBptjdUhH-26" value="&lt;u&gt;database&lt;/u&gt;&lt;div&gt;&lt;div&gt;bucket&lt;/div&gt;&lt;/div&gt;&lt;div&gt;&lt;div&gt;&lt;u&gt;measurement&lt;/u&gt;&lt;/div&gt;&lt;/div&gt;&lt;div&gt;&lt;u&gt;&lt;br&gt;&lt;/u&gt;&lt;/div&gt;&lt;div&gt;&lt;br&gt;&lt;/div&gt;" style="align=left;strokeColor=none;fillColor=none;spacingLeft=4;spacingRight=4;fontSize=12;verticalAlign=top;resizable=0;rotatable=0;part=1;html=1;whiteSpace=wrap;labelBackgroundColor=none;rounded=1;" vertex="1" parent="lz5ieuGBcfySBptjdUhH-25">
          <mxGeometry y="50" width="180" height="150" as="geometry" />
        </mxCell>
        <mxCell id="lz5ieuGBcfySBptjdUhH-30" value="Writes to" style="shape=rhombus;perimeter=rhombusPerimeter;whiteSpace=wrap;html=1;align=center;labelBackgroundColor=none;rounded=1;" vertex="1" parent="lz5ieuGBcfySBptjdUhH-66">
          <mxGeometry x="250" y="428" width="120" height="60" as="geometry" />
        </mxCell>
        <mxCell id="lz5ieuGBcfySBptjdUhH-31" value="Reads from" style="shape=rhombus;perimeter=rhombusPerimeter;whiteSpace=wrap;html=1;align=center;labelBackgroundColor=none;rounded=1;" vertex="1" parent="lz5ieuGBcfySBptjdUhH-66">
          <mxGeometry x="250" y="503" width="120" height="60" as="geometry" />
        </mxCell>
        <mxCell id="lz5ieuGBcfySBptjdUhH-48" style="rounded=1;orthogonalLoop=1;jettySize=auto;html=1;exitX=0;exitY=0.5;exitDx=0;exitDy=0;entryX=1;entryY=0.25;entryDx=0;entryDy=0;fontSize=12;endArrow=ERmandOne;startArrow=ERmandOne;labelBackgroundColor=none;fontColor=default;" edge="1" parent="lz5ieuGBcfySBptjdUhH-66" source="lz5ieuGBcfySBptjdUhH-34" target="lz5ieuGBcfySBptjdUhH-17">
          <mxGeometry relative="1" as="geometry" />
        </mxCell>
        <mxCell id="lz5ieuGBcfySBptjdUhH-34" value="Writes" style="shape=rhombus;perimeter=rhombusPerimeter;whiteSpace=wrap;html=1;align=center;labelBackgroundColor=none;rounded=1;" vertex="1" parent="lz5ieuGBcfySBptjdUhH-66">
          <mxGeometry x="670" y="428" width="120" height="60" as="geometry" />
        </mxCell>
        <mxCell id="lz5ieuGBcfySBptjdUhH-50" style="rounded=1;orthogonalLoop=1;jettySize=auto;html=1;exitX=0;exitY=0.5;exitDx=0;exitDy=0;entryX=1;entryY=0.75;entryDx=0;entryDy=0;fontSize=12;endArrow=ERmandOne;startArrow=ERmandOne;labelBackgroundColor=none;fontColor=default;" edge="1" parent="lz5ieuGBcfySBptjdUhH-66" source="lz5ieuGBcfySBptjdUhH-35" target="lz5ieuGBcfySBptjdUhH-17">
          <mxGeometry relative="1" as="geometry" />
        </mxCell>
        <mxCell id="lz5ieuGBcfySBptjdUhH-35" value="Reads" style="shape=rhombus;perimeter=rhombusPerimeter;whiteSpace=wrap;html=1;align=center;labelBackgroundColor=none;rounded=1;" vertex="1" parent="lz5ieuGBcfySBptjdUhH-66">
          <mxGeometry x="670" y="502" width="120" height="60" as="geometry" />
        </mxCell>
        <mxCell id="lz5ieuGBcfySBptjdUhH-54" style="rounded=1;orthogonalLoop=1;jettySize=auto;html=1;exitX=0.5;exitY=0;exitDx=0;exitDy=0;entryX=0.5;entryY=1;entryDx=0;entryDy=0;fontSize=12;endArrow=ERmandOne;startArrow=ERmandOne;labelBackgroundColor=none;fontColor=default;" edge="1" parent="lz5ieuGBcfySBptjdUhH-66" source="lz5ieuGBcfySBptjdUhH-36" target="lz5ieuGBcfySBptjdUhH-26">
          <mxGeometry relative="1" as="geometry" />
        </mxCell>
        <mxCell id="lz5ieuGBcfySBptjdUhH-36" value="Calls" style="shape=rhombus;perimeter=rhombusPerimeter;whiteSpace=wrap;html=1;align=center;labelBackgroundColor=none;rounded=1;" vertex="1" parent="lz5ieuGBcfySBptjdUhH-66">
          <mxGeometry x="880" y="270" width="120" height="60" as="geometry" />
        </mxCell>
        <mxCell id="lz5ieuGBcfySBptjdUhH-56" style="rounded=1;orthogonalLoop=1;jettySize=auto;html=1;exitX=0;exitY=0.5;exitDx=0;exitDy=0;entryX=1;entryY=0.5;entryDx=0;entryDy=0;fontSize=12;endArrow=ERmandOne;startArrow=ERmandOne;labelBackgroundColor=none;fontColor=default;" edge="1" parent="lz5ieuGBcfySBptjdUhH-66" source="lz5ieuGBcfySBptjdUhH-37" target="lz5ieuGBcfySBptjdUhH-13">
          <mxGeometry relative="1" as="geometry" />
        </mxCell>
        <mxCell id="lz5ieuGBcfySBptjdUhH-37" value="Writes" style="shape=rhombus;perimeter=rhombusPerimeter;whiteSpace=wrap;html=1;align=center;labelBackgroundColor=none;rounded=1;" vertex="1" parent="lz5ieuGBcfySBptjdUhH-66">
          <mxGeometry x="670" y="130" width="120" height="60" as="geometry" />
        </mxCell>
        <mxCell id="lz5ieuGBcfySBptjdUhH-59" style="rounded=1;orthogonalLoop=1;jettySize=auto;html=1;exitX=1;exitY=0.5;exitDx=0;exitDy=0;entryX=0;entryY=0.5;entryDx=0;entryDy=0;fontSize=12;endArrow=ERmandOne;startArrow=ERmandOne;labelBackgroundColor=none;fontColor=default;" edge="1" parent="lz5ieuGBcfySBptjdUhH-66" source="lz5ieuGBcfySBptjdUhH-38" target="lz5ieuGBcfySBptjdUhH-13">
          <mxGeometry relative="1" as="geometry" />
        </mxCell>
        <mxCell id="lz5ieuGBcfySBptjdUhH-38" value="Reads" style="shape=rhombus;perimeter=rhombusPerimeter;whiteSpace=wrap;html=1;align=center;labelBackgroundColor=none;rounded=1;" vertex="1" parent="lz5ieuGBcfySBptjdUhH-66">
          <mxGeometry x="250" y="130" width="120" height="60" as="geometry" />
        </mxCell>
        <mxCell id="lz5ieuGBcfySBptjdUhH-52" style="rounded=1;orthogonalLoop=1;jettySize=auto;html=1;exitX=0.5;exitY=0;exitDx=0;exitDy=0;entryX=0.5;entryY=1;entryDx=0;entryDy=0;fontSize=12;endArrow=ERmandOne;startArrow=ERmandOne;labelBackgroundColor=none;fontColor=default;" edge="1" parent="lz5ieuGBcfySBptjdUhH-66" source="lz5ieuGBcfySBptjdUhH-39" target="lz5ieuGBcfySBptjdUhH-21">
          <mxGeometry relative="1" as="geometry" />
        </mxCell>
        <mxCell id="lz5ieuGBcfySBptjdUhH-39" value="Manages" style="shape=rhombus;perimeter=rhombusPerimeter;whiteSpace=wrap;html=1;align=center;labelBackgroundColor=none;rounded=1;" vertex="1" parent="lz5ieuGBcfySBptjdUhH-66">
          <mxGeometry x="880" y="610" width="120" height="60" as="geometry" />
        </mxCell>
        <mxCell id="lz5ieuGBcfySBptjdUhH-47" style="rounded=1;orthogonalLoop=1;jettySize=auto;html=1;exitX=0;exitY=0.25;exitDx=0;exitDy=0;entryX=1;entryY=0.5;entryDx=0;entryDy=0;fontSize=12;endArrow=ERmandOne;startArrow=ERmandOne;labelBackgroundColor=none;fontColor=default;" edge="1" parent="lz5ieuGBcfySBptjdUhH-66" source="lz5ieuGBcfySBptjdUhH-21" target="lz5ieuGBcfySBptjdUhH-34">
          <mxGeometry relative="1" as="geometry" />
        </mxCell>
        <mxCell id="lz5ieuGBcfySBptjdUhH-49" style="rounded=1;orthogonalLoop=1;jettySize=auto;html=1;exitX=0;exitY=0.75;exitDx=0;exitDy=0;entryX=1;entryY=0.5;entryDx=0;entryDy=0;fontSize=12;endArrow=ERmandOne;startArrow=ERmandOne;labelBackgroundColor=none;fontColor=default;" edge="1" parent="lz5ieuGBcfySBptjdUhH-66" source="lz5ieuGBcfySBptjdUhH-21" target="lz5ieuGBcfySBptjdUhH-35">
          <mxGeometry relative="1" as="geometry" />
        </mxCell>
        <mxCell id="lz5ieuGBcfySBptjdUhH-55" style="rounded=1;orthogonalLoop=1;jettySize=auto;html=1;exitX=0;exitY=0.5;exitDx=0;exitDy=0;entryX=1;entryY=0.5;entryDx=0;entryDy=0;fontSize=12;endArrow=ERmandOne;startArrow=ERmandOne;labelBackgroundColor=none;fontColor=default;" edge="1" parent="lz5ieuGBcfySBptjdUhH-66" source="lz5ieuGBcfySBptjdUhH-26" target="lz5ieuGBcfySBptjdUhH-37">
          <mxGeometry relative="1" as="geometry" />
        </mxCell>
        <mxCell id="lz5ieuGBcfySBptjdUhH-58" style="rounded=1;orthogonalLoop=1;jettySize=auto;html=1;exitX=1;exitY=0.5;exitDx=0;exitDy=0;entryX=0;entryY=0.5;entryDx=0;entryDy=0;fontSize=12;endArrow=ERmandOne;startArrow=ERmandOne;labelBackgroundColor=none;fontColor=default;" edge="1" parent="lz5ieuGBcfySBptjdUhH-66" source="lz5ieuGBcfySBptjdUhH-19" target="lz5ieuGBcfySBptjdUhH-38">
          <mxGeometry relative="1" as="geometry" />
        </mxCell>
        <mxCell id="lz5ieuGBcfySBptjdUhH-60" value="" style="fontSize=12;html=1;endArrow=ERzeroToMany;startArrow=ERmandOne;rounded=1;exitX=0;exitY=0.5;exitDx=0;exitDy=0;entryX=1;entryY=0.25;entryDx=0;entryDy=0;labelBackgroundColor=none;fontColor=default;" edge="1" parent="lz5ieuGBcfySBptjdUhH-66" source="lz5ieuGBcfySBptjdUhH-30" target="lz5ieuGBcfySBptjdUhH-6">
          <mxGeometry width="100" height="100" relative="1" as="geometry">
            <mxPoint x="230" y="520" as="sourcePoint" />
            <mxPoint x="330" y="420" as="targetPoint" />
          </mxGeometry>
        </mxCell>
        <mxCell id="lz5ieuGBcfySBptjdUhH-61" value="" style="fontSize=12;html=1;endArrow=ERzeroToMany;startArrow=ERmandOne;rounded=1;exitX=0;exitY=0.25;exitDx=0;exitDy=0;entryX=1;entryY=0.5;entryDx=0;entryDy=0;labelBackgroundColor=none;fontColor=default;" edge="1" parent="lz5ieuGBcfySBptjdUhH-66" source="lz5ieuGBcfySBptjdUhH-17" target="lz5ieuGBcfySBptjdUhH-30">
          <mxGeometry width="100" height="100" relative="1" as="geometry">
            <mxPoint x="255" y="430" as="sourcePoint" />
            <mxPoint x="190" y="468" as="targetPoint" />
          </mxGeometry>
        </mxCell>
        <mxCell id="lz5ieuGBcfySBptjdUhH-62" value="" style="fontSize=12;html=1;endArrow=ERmandOne;startArrow=ERmandOne;rounded=1;exitX=1;exitY=0.75;exitDx=0;exitDy=0;entryX=0;entryY=0.5;entryDx=0;entryDy=0;labelBackgroundColor=none;fontColor=default;" edge="1" parent="lz5ieuGBcfySBptjdUhH-66" source="lz5ieuGBcfySBptjdUhH-6" target="lz5ieuGBcfySBptjdUhH-31">
          <mxGeometry width="100" height="100" relative="1" as="geometry">
            <mxPoint x="230" y="520" as="sourcePoint" />
            <mxPoint x="330" y="420" as="targetPoint" />
          </mxGeometry>
        </mxCell>
        <mxCell id="lz5ieuGBcfySBptjdUhH-63" value="" style="fontSize=12;html=1;endArrow=ERmandOne;startArrow=ERmandOne;rounded=1;exitX=0;exitY=0.75;exitDx=0;exitDy=0;entryX=1;entryY=0.5;entryDx=0;entryDy=0;labelBackgroundColor=none;fontColor=default;" edge="1" parent="lz5ieuGBcfySBptjdUhH-66" source="lz5ieuGBcfySBptjdUhH-17" target="lz5ieuGBcfySBptjdUhH-31">
          <mxGeometry width="100" height="100" relative="1" as="geometry">
            <mxPoint x="190" y="543" as="sourcePoint" />
            <mxPoint x="255" y="530" as="targetPoint" />
          </mxGeometry>
        </mxCell>
        <mxCell id="lz5ieuGBcfySBptjdUhH-65" value="&lt;font&gt;app.py&lt;/font&gt;" style="text;html=1;align=center;verticalAlign=middle;whiteSpace=wrap;rounded=1;fontSize=28;labelBackgroundColor=none;" vertex="1" parent="lz5ieuGBcfySBptjdUhH-66">
          <mxGeometry x="900" y="930" width="90" height="30" as="geometry" />
        </mxCell>
      </root>
    </mxGraphModel>
  </diagram>
</mxfile>
